<svg class="svg-icon" width="30" height="30" viewBox="0 0 1024 1024" version="1.1"
    xmlns="http://www.w3.org/2000/svg">
    <path d="M608.913 282.863H209.247l120.009-120.084a37.867 37.867 0 0 0 9.792-36.58 37.873 37.873 0 0 0-26.786-26.764 37.863 37.863 0 0 0-36.568 9.81L114.539 270.366c-14.094 14.052-21.897 32.956-21.972 53.037a74.607 74.607 0 0 0 21.972 53.603l161.155 161.195c7.087 7.128 16.729 11.14 26.782 11.14s19.693-4.012 26.78-11.14a37.827 37.827 0 0 0 11.11-26.786 37.829 37.829 0 0 0-11.11-26.782L202.882 358.56h406.031c136.004 0 246.62 110.465 246.62 246.239s-110.616 246.24-246.62 246.24H344.488c-20.92 0-37.885 16.965-37.885 37.885s16.965 37.886 37.885 37.886h264.426c177.751 0 322.386-144.451 322.386-322.011s-144.634-322.01-322.386-322.01" />
</svg>